<svg version="1" xmlns="http://www.w3.org/2000/svg" width="682.667" height="682.667" viewBox="0 0 512.000000 512.000000"><path d="M25.4 11.4c-4.6 2-11.2 8.3-13.7 13l-2.2 4.1-.3 226c-.3 254.4-1 230.5 7.6 239.7 8.6 9.2-16.2 8.3 239.2 8.3h225.5l4.8-2.4c6.3-3.1 12.3-10.1 14.2-16.4 2.3-7.6 2.3-447.7 0-455.3-1.9-6.5-7.6-13.1-13.9-16l-5.1-2.4H255c-189.4.1-227 .3-229.6 1.4zm124.3 79.7c4.6 1.7 227.5 149.8 231 153.4 6.4 6.7 6.4 16.3 0 23-2.9 3-222.6 149.3-230 153.1-7 3.7-17.3-.4-22.2-8.7-2-3.4-2-5.4-2.3-153.7-.1-101.7.1-151.6.8-154.3 2.7-9.9 13.8-16.2 22.7-12.8z"/></svg>